<svg width="144" height="35" viewBox="0 0 144 35" fill="none" xmlns="http://www.w3.org/2000/svg">
<path d="M143.967 7.20001V23.148C143.967 26.772 142.995 29.484 141.051 31.284C139.131 33.108 136.359 34.02 132.735 34.02C130.839 34.02 129.063 33.804 127.407 33.372C125.775 32.94 124.383 32.304 123.231 31.464L125.715 26.676C126.483 27.324 127.443 27.828 128.595 28.188C129.771 28.572 130.935 28.764 132.087 28.764C133.815 28.764 135.087 28.368 135.903 27.576C136.719 26.784 137.127 25.608 137.127 24.048V23.616C135.663 25.008 133.839 25.704 131.655 25.704C129.135 25.704 127.119 24.96 125.607 23.472C124.119 21.984 123.375 19.752 123.375 16.776V7.20001H130.215V15.66C130.215 17.148 130.491 18.228 131.043 18.9C131.595 19.572 132.399 19.908 133.455 19.908C134.535 19.908 135.411 19.524 136.083 18.756C136.779 17.988 137.127 16.836 137.127 15.3V7.20001H143.967Z" fill="white"/>
<path d="M119.209 7.19998V26.712H112.693V24.768C111.421 26.28 109.501 27.036 106.933 27.036C105.157 27.036 103.537 26.628 102.073 25.812C100.633 24.972 99.4809 23.784 98.6169 22.248C97.7769 20.712 97.3569 18.936 97.3569 16.92C97.3569 14.904 97.7769 13.14 98.6169 11.628C99.4809 10.092 100.633 8.91598 102.073 8.09998C103.537 7.28398 105.157 6.87598 106.933 6.87598C109.237 6.87598 111.049 7.54798 112.369 8.89198V7.19998H119.209ZM108.373 21.6C109.573 21.6 110.557 21.192 111.325 20.376C112.093 19.536 112.477 18.384 112.477 16.92C112.477 15.48 112.093 14.352 111.325 13.536C110.557 12.72 109.573 12.312 108.373 12.312C107.173 12.312 106.189 12.72 105.421 13.536C104.653 14.352 104.269 15.48 104.269 16.92C104.269 18.384 104.653 19.536 105.421 20.376C106.189 21.192 107.173 21.6 108.373 21.6Z" fill="white"/>
<path d="M93.4398 27.036C91.0398 27.036 89.1678 26.424 87.8238 25.2C86.5038 23.952 85.8438 22.176 85.8438 19.872V0H92.6838V19.512C92.6838 20.232 92.8637 20.784 93.2237 21.168C93.6077 21.552 94.1358 21.744 94.8078 21.744C95.3598 21.744 95.8758 21.624 96.3558 21.384L96.6438 26.532C95.6118 26.868 94.5438 27.036 93.4398 27.036Z" fill="white"/>
<path d="M71.3095 1.51196C73.5895 1.51196 75.5695 1.89596 77.2495 2.66396C78.9296 3.40796 80.2255 4.48796 81.1376 5.90396C82.0495 7.29596 82.5056 8.93996 82.5056 10.836C82.5056 12.732 82.0495 14.376 81.1376 15.768C80.2255 17.16 78.9296 18.24 77.2495 19.008C75.5695 19.752 73.5895 20.124 71.3095 20.124H66.9175V26.712H59.7896V1.51196H71.3095ZM70.8775 14.508C72.3415 14.508 73.4456 14.196 74.1896 13.572C74.9336 12.924 75.3055 12.012 75.3055 10.836C75.3055 9.65996 74.9336 8.74796 74.1896 8.09996C73.4456 7.45196 72.3415 7.12796 70.8775 7.12796H66.9175V14.508H70.8775Z" fill="white"/>
<path d="M52.3154 14.976C51.1634 14.976 50.1914 14.592 49.3994 13.824C48.6074 13.056 48.2114 12.084 48.2114 10.908C48.2114 9.70798 48.5954 8.73598 49.3634 7.99198C50.1554 7.24798 51.1394 6.87598 52.3154 6.87598C53.5154 6.87598 54.4994 7.24798 55.2674 7.99198C56.0354 8.73598 56.4194 9.70798 56.4194 10.908C56.4194 12.084 56.0234 13.056 55.2314 13.824C54.4634 14.592 53.4914 14.976 52.3154 14.976ZM52.3154 27.036C51.1634 27.036 50.1914 26.652 49.3994 25.884C48.6074 25.116 48.2114 24.144 48.2114 22.968C48.2114 21.768 48.5954 20.796 49.3634 20.052C50.1554 19.308 51.1394 18.936 52.3154 18.936C53.5154 18.936 54.4994 19.308 55.2674 20.052C56.0354 20.796 56.4194 21.768 56.4194 22.968C56.4194 24.144 56.0234 25.116 55.2314 25.884C54.4634 26.652 53.4914 27.036 52.3154 27.036Z" fill="white"/>
<path d="M36.9423 21.816C37.8783 21.816 38.6823 21.684 39.3543 21.42C40.0503 21.156 40.7463 20.724 41.4423 20.124L45.0063 23.868C43.1583 25.98 40.3983 27.036 36.7263 27.036C34.4463 27.036 32.4423 26.604 30.7143 25.74C28.9863 24.876 27.6423 23.676 26.6823 22.14C25.7463 20.604 25.2783 18.864 25.2783 16.92C25.2783 15 25.7463 13.284 26.6823 11.772C27.6183 10.236 28.9023 9.03598 30.5343 8.17198C32.1903 7.30798 34.0383 6.87598 36.0783 6.87598C37.9743 6.87598 39.7023 7.27198 41.2623 8.06398C42.8463 8.83198 44.1063 9.97198 45.0423 11.484C45.9783 12.972 46.4463 14.748 46.4463 16.812L32.5143 19.476C33.2583 21.036 34.7343 21.816 36.9423 21.816ZM36.1143 11.736C34.9383 11.736 33.9783 12.108 33.2343 12.852C32.4903 13.572 32.0703 14.616 31.9743 15.984L39.8943 14.436C39.6543 13.62 39.1983 12.972 38.5263 12.492C37.8543 11.988 37.0503 11.736 36.1143 11.736Z" fill="white"/>
<path fill-rule="evenodd" clip-rule="evenodd" d="M17.46 2.66396C15.78 1.89596 13.8 1.51196 11.52 1.51196H0V26.712H7.128V20.124H11.52C11.6353 20.124 11.7499 20.123 11.8637 20.1211L14.5 26.712H22.5L19.0571 18.1048C19.986 17.4602 20.7497 16.6812 21.348 15.768C22.26 14.376 22.716 12.732 22.716 10.836C22.716 8.93996 22.26 7.29596 21.348 5.90396C20.436 4.48796 19.14 3.40796 17.46 2.66396ZM14.4 13.572C13.656 14.196 12.552 14.508 11.088 14.508H7.128V7.12796H11.088C12.552 7.12796 13.656 7.45196 14.4 8.09996C15.144 8.74796 15.516 9.65996 15.516 10.836C15.516 12.012 15.144 12.924 14.4 13.572Z" fill="white"/>
</svg>
