<svg width="25" height="26" viewBox="0 0 25 26" fill="none" xmlns="http://www.w3.org/2000/svg">
<path fill-rule="evenodd" clip-rule="evenodd" d="M10.7387 5.30271C11.1321 5.69032 11.1369 6.32347 10.7492 6.71689L4.50337 13.0564L10.8429 19.3023C11.2363 19.6899 11.2411 20.3231 10.8535 20.7165C10.4658 21.1099 9.8327 21.1146 9.43928 20.727L2.38737 13.7793C1.99395 13.3917 1.98923 12.7586 2.37684 12.3652L9.32454 5.31324C9.71215 4.91982 10.3453 4.91511 10.7387 5.30271Z" fill="white"/>
<path fill-rule="evenodd" clip-rule="evenodd" d="M2.08947 13.0744C2.08536 12.5222 2.52973 12.0711 3.082 12.067L21.0815 11.933C21.6338 11.9289 22.0848 12.3733 22.0889 12.9256C22.093 13.4778 21.6487 13.9289 21.0964 13.933L3.09689 14.067C2.54462 14.0711 2.09359 13.6267 2.08947 13.0744Z" fill="white"/>
</svg>
