<svg width="20" height="20" viewBox="0 0 20 20" fill="currentColor" xmlns="http://www.w3.org/2000/svg">
<g clip-path="url(#clip0_94_420)">
<path d="M4.39072 18.3793L4.39068 18.3793L4.38326 18.3868C4.17713 18.5962 3.91268 18.7386 3.6244 18.7954C3.33612 18.8523 3.03741 18.8209 2.76722 18.7055L2.37423 19.625L2.74803 18.6975C2.47532 18.5876 2.24213 18.398 2.07894 18.1534C1.91574 17.9088 1.83015 17.6207 1.83334 17.3267H1.8334V17.3158V4.16731C1.83455 3.32765 2.16861 2.5227 2.76235 1.92896C3.35609 1.33522 4.16104 1.00115 5.00071 1H14.9994C15.8391 1.00115 16.644 1.33522 17.2378 1.92896C17.8316 2.52283 18.1657 3.328 18.1667 4.16786V17.3158H18.1667L18.1668 17.3272C18.1701 17.621 18.0848 17.909 17.922 18.1535C17.7592 18.3981 17.5264 18.5878 17.2541 18.698L17.2541 18.698L17.2427 18.7027C17.0561 18.7809 16.8559 18.8216 16.6536 18.8225C16.4609 18.8218 16.2703 18.7831 16.0926 18.7086C15.9141 18.6337 15.7523 18.5242 15.6164 18.3864L15.6165 18.3863L15.6094 18.3793L10.7052 13.5018L10.0001 12.8005L9.29489 13.5018L4.39072 18.3793Z" stroke="currentColor" stroke-width="2"/>
</g>
<defs>
<clipPath id="clip0_94_420">
<rect width="20" height="20" fill="currentColor"/>
</clipPath>
</defs>
</svg>
