<svg width="99" height="80" viewBox="0 0 99 80" fill="none" xmlns="http://www.w3.org/2000/svg">
<path d="M79.0781 0.687215C80.1122 1.66235 79.9669 2.55066 79.9642 3.84272C79.9648 4.06346 79.9655 4.2842 79.9661 4.51162C79.9679 5.25572 79.9676 5.9998 79.9674 6.7439C79.9682 7.27566 79.9692 7.80741 79.9702 8.33916C79.9727 9.78722 79.9733 11.2353 79.9735 12.6833C79.9738 13.8915 79.9748 15.0996 79.9758 16.3077C79.978 19.1586 79.9787 22.0094 79.9785 24.8603C79.9783 27.8015 79.9813 30.7427 79.9856 33.6838C79.9893 36.2077 79.9908 38.7315 79.9906 41.2554C79.9905 42.7632 79.9913 44.2711 79.9942 45.779C79.9969 47.1981 79.9969 48.6172 79.9949 50.0364C79.9946 50.5568 79.9953 51.0772 79.997 51.5977C79.9991 52.3092 79.9978 53.0206 79.9957 53.7322C79.9971 53.9372 79.9985 54.1422 80 54.3535C79.9728 58.4677 77.7466 61.9887 74.7634 64.9469C70.9379 68.2837 65.9431 70.0851 60.6932 70.0693C60.2868 70.0755 60.2868 70.0755 59.8722 70.0817C56.4063 70.0838 53.554 69.0801 51.0014 66.9006C48.615 64.5544 47.923 62.4873 47.9864 59.3201C48.2083 55.4454 50.2788 52.3278 53.3115 49.6908C57.9162 46.0439 62.551 44.9886 68.5015 45.0566C68.8461 45.0535 69.1906 45.0504 69.5456 45.0472C69.8557 45.0494 70.1659 45.0515 70.4855 45.0538C71.4518 44.8438 71.8213 44.5138 72.4282 43.8081C72.9363 43.0022 72.9091 42.1637 72.8937 41.2613C72.8957 41.0577 72.8977 40.8541 72.8997 40.6444C72.9044 39.9748 72.899 39.3058 72.8931 38.6363C72.8933 38.1693 72.894 37.7023 72.8951 37.2354C72.8959 36.2582 72.8918 35.2813 72.8842 34.3042C72.8748 33.0527 72.8764 31.8015 72.8816 30.55C72.8846 29.5863 72.8821 28.6227 72.8779 27.659C72.8765 27.1976 72.8766 26.7362 72.8784 26.2748C72.8799 25.6297 72.8742 24.985 72.8666 24.34C72.8684 24.15 72.8702 23.9601 72.8721 23.7643C72.8541 22.8612 72.7337 22.3104 72.2344 21.5241C71.6696 20.9767 71.6696 20.9767 70.9992 20.924C70.7816 20.9557 70.5639 20.9873 70.3396 21.02C70.095 21.0549 69.8505 21.0899 69.5985 21.1259C68.3372 21.3678 67.106 21.6683 65.871 22.0044C65.5901 22.0789 65.3093 22.1534 65.0199 22.2302C64.1026 22.4742 63.1863 22.7214 62.27 22.9688C61.6286 23.1402 60.9871 23.3115 60.3455 23.4826C58.3693 24.0108 56.3947 24.5437 54.4205 25.078C54.11 25.162 53.7996 25.2459 53.4797 25.3325C50.1675 26.2288 46.8555 27.1262 43.5486 28.0389C42.3166 28.3787 41.0831 28.7119 39.8455 29.0346C39.5943 29.1011 39.3431 29.1675 39.0843 29.236C38.6099 29.3613 38.1349 29.4846 37.6591 29.6055C36.2106 29.9911 34.6944 30.4039 33.8613 31.6446C33.6102 32.2212 33.5721 32.5833 33.6039 33.1993C33.6124 33.3993 33.6209 33.5993 33.6297 33.8053C33.6417 34.0226 33.6538 34.24 33.6662 34.4639C33.6872 34.9426 33.7078 35.4215 33.7281 35.9003C33.7395 36.1544 33.751 36.4085 33.7628 36.6703C33.8294 38.3167 33.8564 39.9642 33.8896 41.6114C33.9207 43.051 33.966 44.4877 34.0443 45.9258C34.5942 56.3707 34.5942 56.3707 31.0292 59.9723C29.6776 61.239 28.2086 62.3974 26.6455 63.4408C25.4781 64.2219 25.0575 64.7538 24.2006 65.9302C26.9453 66.8513 29.6901 67.7723 32.518 68.7213C30.9558 73.0107 27.426 76.0682 23.0916 78.1097C19.8634 79.5149 17.1545 79.9777 13.5959 79.9811C13.2503 79.9873 12.9047 79.9935 12.5487 79.9999C9.25544 80.0093 6.22401 79.3593 3.68436 77.3485C0.841239 74.6098 -0.0620034 71.8013 0.00326235 68.1197C0.11507 65.6195 1.18036 63.5589 2.85262 61.6166C3.02917 61.4105 3.20572 61.2045 3.38762 60.9922C6.43598 57.6708 10.9293 55.2808 15.606 54.5119C17.4864 54.3694 19.3831 54.4001 21.2685 54.4013C21.9168 54.4004 22.5647 54.3935 23.2129 54.386C23.4113 54.3881 23.6097 54.3902 23.8141 54.3923C24.7072 54.38 25.1823 54.3706 25.8392 53.7902C26.3812 52.8088 26.4523 52.0548 26.4494 50.9688C26.4493 50.6525 26.4492 50.3363 26.4491 50.0105C26.4476 49.6594 26.4462 49.3083 26.4447 48.9572C26.4442 48.5879 26.4438 48.2186 26.4436 47.8493C26.4429 47.0534 26.4416 46.2576 26.4399 45.4618C26.4376 44.2023 26.4391 42.943 26.4416 41.6835C26.442 41.4709 26.4424 41.2584 26.4428 41.0393C26.4437 40.6046 26.4445 40.1698 26.4454 39.735C26.4513 36.803 26.4551 33.871 26.4462 30.939C26.4402 28.9613 26.4411 26.9838 26.4499 25.0061C26.4543 23.9599 26.4552 22.9139 26.4477 21.8678C26.4408 20.8827 26.4429 19.8981 26.4519 18.9131C26.4536 18.5526 26.452 18.1922 26.4467 17.8317C26.4056 14.7768 26.4056 14.7768 27.6293 13.4556C28.4542 12.7194 29.2184 12.2921 30.3293 11.9767C30.6675 11.8788 31.0057 11.7809 31.3542 11.6801C31.7418 11.5777 32.1297 11.4764 32.518 11.376C32.8417 11.2907 32.8417 11.2907 33.1719 11.2036C34.9181 10.7456 36.6717 10.3139 38.4268 9.8853C39.454 9.63274 40.481 9.37944 41.5079 9.12606C41.7688 9.06177 42.0296 8.99749 42.2984 8.93125C48.3443 7.43811 54.3614 5.84945 60.3813 4.2713C61.1325 4.07436 61.8837 3.87744 62.635 3.68056C62.8199 3.63209 63.0048 3.58363 63.1952 3.5337C64.1138 3.29302 65.0325 3.05279 65.9515 2.81347C66.1295 2.76712 66.3074 2.72077 66.4908 2.67302C66.6672 2.62707 66.8436 2.58111 67.0254 2.53377C68.3938 2.17722 69.7603 1.81545 71.1256 1.44943C71.7462 1.28519 72.3667 1.12098 72.9873 0.956814C73.2657 0.880889 73.5441 0.804964 73.8309 0.726738C77.4985 -0.235555 77.4985 -0.235555 79.0781 0.687215Z" fill="#27C49A"/>
</svg>
