<svg width="20" height="21" viewBox="0 0 20 21" fill="none" xmlns="http://www.w3.org/2000/svg">
<g clip-path="url(#clip0_86_1476)">
<path fill-rule="evenodd" clip-rule="evenodd" d="M15.41 3.89486H15.8333C16.938 3.89618 17.997 4.33559 18.7782 5.11671C19.5593 5.89782 19.9987 6.95686 20 8.06152V16.3949C19.9987 17.4995 19.5593 18.5586 18.7782 19.3397C17.997 20.1208 16.938 20.5602 15.8333 20.5615H4.16667C3.062 20.5602 2.00296 20.1208 1.22185 19.3397C0.440735 18.5586 0.00132321 17.4995 0 16.3949V8.06152C0.00132321 6.95686 0.440735 5.89782 1.22185 5.11671C2.00296 4.33559 3.062 3.89618 4.16667 3.89486H4.59L6.41 1.53486C6.64456 1.23303 6.94473 0.988537 7.28778 0.819902C7.63082 0.651266 8.00775 0.562909 8.39 0.561523H11.61C11.9923 0.562909 12.3692 0.651266 12.7122 0.819902C13.0553 0.988537 13.3554 1.23303 13.59 1.53486L15.41 3.89486ZM8.02244 2.31443C7.90808 2.37074 7.80806 2.4524 7.73 2.55319L6.695 3.89486H13.305L12.27 2.55319C12.1919 2.45249 12.0918 2.3709 11.9775 2.31459C11.8631 2.25829 11.7375 2.22874 11.61 2.22819H8.39C8.26252 2.22862 8.13681 2.25811 8.02244 2.31443ZM7.22209 8.0708C8.04434 7.52139 9.01103 7.22815 9.99994 7.22815C11.3256 7.22947 12.5966 7.75668 13.534 8.69408C14.4714 9.63147 14.9986 10.9025 14.9999 12.2282C14.9999 13.2171 14.7067 14.1838 14.1573 15.006C13.6079 15.8282 12.827 16.4691 11.9134 16.8475C10.9997 17.226 9.9944 17.325 9.02449 17.1321C8.05458 16.9392 7.16367 16.4629 6.46441 15.7637C5.76514 15.0644 5.28894 14.1735 5.09601 13.2036C4.90309 12.2337 5.00211 11.2284 5.38054 10.3147C5.75898 9.4011 6.39984 8.62021 7.22209 8.0708ZM8.14804 14.9997C8.69621 15.366 9.34067 15.5615 9.99994 15.5615C10.884 15.5615 11.7318 15.2103 12.357 14.5852C12.9821 13.9601 13.3333 13.1122 13.3333 12.2282C13.3333 11.5689 13.1378 10.9244 12.7715 10.3762C12.4052 9.82809 11.8846 9.40084 11.2756 9.14855C10.6665 8.89626 9.99624 8.83025 9.34964 8.95887C8.70304 9.08748 8.10909 9.40495 7.64292 9.87113C7.17674 10.3373 6.85927 10.9312 6.73066 11.5778C6.60204 12.2245 6.66805 12.8947 6.92034 13.5038C7.17263 14.1128 7.59988 14.6334 8.14804 14.9997Z" fill="white"/>
</g>
<defs>
<clipPath id="clip0_86_1476">
<rect width="20" height="20" fill="white" transform="translate(0 0.561523)"/>
</clipPath>
</defs>
</svg>
