<svg width="16" height="16" viewBox="0 0 16 16" fill="none" xmlns="http://www.w3.org/2000/svg">
<path fill-rule="evenodd" clip-rule="evenodd" d="M7.99992 1.33331C4.31802 1.33331 1.33325 4.31808 1.33325 7.99998C1.33325 11.6819 4.31802 14.6666 7.99992 14.6666C11.6818 14.6666 14.6666 11.6819 14.6666 7.99998C14.6666 4.31808 11.6818 1.33331 7.99992 1.33331ZM11.2998 4.70014C11.5601 4.96049 11.5601 5.3826 11.2998 5.64295L8.94273 7.99997L11.2998 10.357C11.5601 10.6173 11.5601 11.0395 11.2998 11.2998C11.0394 11.5602 10.6173 11.5602 10.3569 11.2998L7.99992 8.94278L5.6429 11.2998C5.38255 11.5602 4.96044 11.5602 4.70009 11.2998C4.43974 11.0395 4.43974 10.6173 4.70009 10.357L7.05711 7.99997L4.70009 5.64295C4.43974 5.3826 4.43974 4.96049 4.70009 4.70014C4.96044 4.43979 5.38255 4.43979 5.6429 4.70014L7.99992 7.05716L10.3569 4.70014C10.6173 4.43979 11.0394 4.43979 11.2998 4.70014Z" fill="#6C7374"/>
</svg>
