<svg width="24" height="24" viewBox="0 0 24 24" fill="none" xmlns="http://www.w3.org/2000/svg">
<g clip-path="url(#clip0_155_4153)">
<path d="M12 0C5.37258 0 0 5.37258 0 12C0 18.6274 5.37258 24 12 24C18.6274 24 24 18.6274 24 12C23.9928 5.37553 18.6245 0.00717187 12 0ZM18 16.5C18.4064 16.874 18.374 17.5936 18 18C17.626 18.4064 16.9064 18.374 16.5 18C16.4797 17.9813 14.6057 16.0203 14.587 16L12 13.414L7.5 18C7.10273 18.3837 6.38367 18.3973 6 18C5.62575 17.6125 5.62575 16.8875 6 16.5L10.586 12L6 7.5C5.61633 7.10273 5.60273 6.38367 6 6C6.38752 5.62575 7.11248 5.62575 7.5 6L12 10.586L16.5 6C16.874 5.59364 17.5936 5.62598 18 6C18.4064 6.37402 18.374 7.09364 18 7.5C17.9813 7.52034 16.0203 9.39427 16 9.41302L13.414 12L18 16.5Z" fill="black" fill-opacity="0.3"/>
<path d="M18 16.5C18.4064 16.874 18.374 17.5936 18 18C17.626 18.4064 16.9064 18.374 16.5 18C16.4797 17.9813 14.6057 16.0203 14.587 16L12 13.414L7.5 18C7.10273 18.3837 6.38367 18.3973 6 18C5.62575 17.6125 5.62575 16.8875 6 16.5L10.586 12L6 7.5C5.61633 7.10273 5.60273 6.38367 6 6C6.38752 5.62575 7.11248 5.62575 7.5 6L12 10.586L16.5 6C16.874 5.59364 17.5936 5.62598 18 6C18.4064 6.37402 18.374 7.09364 18 7.5C17.9813 7.52034 16.0203 9.39427 16 9.41302L13.414 12L18 16.5Z" fill="white"/>
</g>
<defs>
<clipPath id="clip0_155_4153">
<rect width="24" height="24" fill="white"/>
</clipPath>
</defs>
</svg>
