<svg width="24" height="24" viewBox="0 0 24 24" fill="currentColor" xmlns="http://www.w3.org/2000/svg">
<g clip-path="url(#clip0_94_423)">
<path d="M11.125 5.70076L12 7.28154L12.8749 5.70076C13.335 4.86938 14.0064 4.17415 14.8212 3.68527C15.6276 3.20143 16.5462 2.93666 17.4861 2.91692C19.0062 2.99072 20.4368 3.65912 21.469 4.77858C22.5078 5.9053 23.0585 7.39736 23.0007 8.9288L23 8.94764V8.9665C23 10.9109 21.9628 13.0716 20.3095 15.2433C18.6743 17.3912 16.5363 19.4204 14.5573 21.0804L14.5566 21.0809C13.8406 21.6826 12.9353 22.0125 12 22.0125C11.0647 22.0125 10.1593 21.6826 9.4433 21.0809L9.44262 21.0804C7.46364 19.4204 5.32559 17.3912 3.69038 15.2433C2.03714 13.0716 0.999958 10.9109 0.999958 8.9665V8.94764L0.999247 8.9288C0.94146 7.39736 1.49213 5.9053 2.53094 4.77858C3.56308 3.65912 4.99374 2.99072 6.51382 2.91692C7.45368 2.93666 8.3723 3.20143 9.1787 3.68527C9.99351 4.17415 10.6649 4.86938 11.125 5.70076Z" stroke="currentColor" stroke-width="2"/>
</g>
<defs>
<clipPath id="clip0_94_423">
<rect width="24" height="24" fill="currentColor"/>
</clipPath>
</defs>
</svg>
