<svg width="25" height="25" viewBox="0 0 25 25" fill="none" xmlns="http://www.w3.org/2000/svg">
<path fill-rule="evenodd" clip-rule="evenodd" d="M10.7387 4.3917C11.1321 4.77931 11.1369 5.41246 10.7492 5.80588L4.50337 12.1454L10.8429 18.3913C11.2363 18.7789 11.2411 19.4121 10.8535 19.8055C10.4658 20.1989 9.8327 20.2036 9.43928 19.816L2.38737 12.8683C1.99395 12.4807 1.98923 11.8476 2.37684 11.4541L9.32454 4.40223C9.71215 4.00881 10.3453 4.0041 10.7387 4.3917Z" fill="white"/>
<path fill-rule="evenodd" clip-rule="evenodd" d="M2.08923 12.1634C2.08512 11.6112 2.52949 11.1601 3.08176 11.156L21.0813 11.022C21.6335 11.0179 22.0846 11.4623 22.0887 12.0146C22.0928 12.5668 21.6484 13.0179 21.0961 13.022L3.09665 13.156C2.54438 13.1601 2.09334 12.7157 2.08923 12.1634Z" fill="white"/>
</svg>
