<svg width="94" height="22" viewBox="0 0 94 22" fill="none" xmlns="http://www.w3.org/2000/svg">
<path d="M93.1005 4.65601V14.9693C93.1005 17.3128 92.4719 19.0666 91.2147 20.2306C89.9731 21.4102 88.1805 22 85.837 22C84.6108 22 83.4624 21.8603 82.3915 21.5809C81.3361 21.3015 80.4359 20.8902 79.6909 20.347L81.2973 17.2507C81.7939 17.6698 82.4147 17.9957 83.1597 18.2285C83.9202 18.4768 84.6729 18.601 85.4179 18.601C86.5354 18.601 87.3579 18.3449 87.8856 17.8327C88.4133 17.3206 88.6772 16.5601 88.6772 15.5513V15.2719C87.7304 16.1721 86.5509 16.6222 85.1385 16.6222C83.5089 16.6222 82.2052 16.141 81.2274 15.1788C80.2652 14.2165 79.784 12.7731 79.784 10.8486V4.65601H84.2073V10.1269C84.2073 11.0892 84.3858 11.7876 84.7428 12.2222C85.0997 12.6567 85.6197 12.874 86.3026 12.874C87.001 12.874 87.5675 12.6257 88.002 12.129C88.4521 11.6324 88.6772 10.8874 88.6772 9.89411V4.65601H93.1005Z" fill="white"/>
<path d="M77.0902 4.65606V17.2741H72.8765V16.0169C72.0539 16.9947 70.8123 17.4836 69.1516 17.4836C68.0031 17.4836 66.9555 17.2197 66.0087 16.6921C65.0775 16.1488 64.3325 15.3806 63.7738 14.3873C63.2306 13.394 62.959 12.2455 62.959 10.9418C62.959 9.63808 63.2306 8.49733 63.7738 7.51955C64.3325 6.52625 65.0775 5.76576 66.0087 5.23807C66.9555 4.71038 68.0031 4.44653 69.1516 4.44653C70.6415 4.44653 71.8133 4.8811 72.6669 5.75024V4.65606H77.0902ZM70.0828 13.9682C70.8588 13.9682 71.4952 13.7044 71.9918 13.1767C72.4885 12.6335 72.7368 11.8885 72.7368 10.9418C72.7368 10.0106 72.4885 9.28111 71.9918 8.75342C71.4952 8.22573 70.8588 7.96188 70.0828 7.96188C69.3068 7.96188 68.6705 8.22573 68.1738 8.75342C67.6772 9.28111 67.4288 10.0106 67.4288 10.9418C67.4288 11.8885 67.6772 12.6335 68.1738 13.1767C68.6705 13.7044 69.3068 13.9682 70.0828 13.9682Z" fill="white"/>
<path d="M60.4254 17.4836C58.8733 17.4836 57.6627 17.0879 56.7936 16.2963C55.94 15.4893 55.5132 14.3408 55.5132 12.8508V0H59.9365V12.618C59.9365 13.0836 60.0529 13.4406 60.2857 13.6889C60.534 13.9372 60.8755 14.0614 61.31 14.0614C61.667 14.0614 62.0007 13.9838 62.3111 13.8286L62.4973 17.1577C61.83 17.375 61.1393 17.4836 60.4254 17.4836Z" fill="white"/>
<path d="M46.1143 0.977783C47.5887 0.977783 48.8692 1.22611 49.9556 1.72276C51.042 2.20389 51.8801 2.9023 52.4699 3.818C53.0596 4.71818 53.3545 5.78132 53.3545 7.00742C53.3545 8.23353 53.0596 9.29667 52.4699 10.1968C51.8801 11.097 51.042 11.7954 49.9556 12.2921C48.8692 12.7732 47.5887 13.0138 46.1143 13.0138H43.2741V17.2741H38.6646V0.977783H46.1143ZM45.8349 9.38203C46.7817 9.38203 47.4956 9.18027 47.9767 8.77674C48.4579 8.35769 48.6984 7.76792 48.6984 7.00742C48.6984 6.24693 48.4579 5.65716 47.9767 5.23811C47.4956 4.81906 46.7817 4.60954 45.8349 4.60954H43.2741V9.38203H45.8349Z" fill="white"/>
<path d="M33.8312 9.68464C33.0862 9.68464 32.4577 9.43631 31.9455 8.93966C31.4333 8.44301 31.1772 7.81444 31.1772 7.05394C31.1772 6.27793 31.4256 5.64936 31.9222 5.16823C32.4344 4.6871 33.0707 4.44653 33.8312 4.44653C34.6072 4.44653 35.2436 4.6871 35.7402 5.16823C36.2369 5.64936 36.4852 6.27793 36.4852 7.05394C36.4852 7.81444 36.2291 8.44301 35.7169 8.93966C35.2203 9.43631 34.5917 9.68464 33.8312 9.68464ZM33.8312 17.4836C33.0862 17.4836 32.4577 17.2353 31.9455 16.7386C31.4333 16.242 31.1772 15.6134 31.1772 14.8529C31.1772 14.0769 31.4256 13.4483 31.9222 12.9672C32.4344 12.4861 33.0707 12.2455 33.8312 12.2455C34.6072 12.2455 35.2436 12.4861 35.7402 12.9672C36.2369 13.4483 36.4852 14.0769 36.4852 14.8529C36.4852 15.6134 36.2291 16.242 35.7169 16.7386C35.2203 17.2353 34.5917 17.4836 33.8312 17.4836Z" fill="white"/>
<path d="M23.89 14.1079C24.4953 14.1079 25.0153 14.0226 25.4498 13.8518C25.8999 13.6811 26.35 13.4018 26.8001 13.0137L29.1049 15.4349C27.9098 16.8007 26.125 17.4836 23.7504 17.4836C22.2759 17.4836 20.98 17.2042 19.8625 16.6455C18.7451 16.0868 17.8759 15.3107 17.2551 14.3174C16.6498 13.3241 16.3472 12.1989 16.3472 10.9418C16.3472 9.70016 16.6498 8.59046 17.2551 7.61268C17.8604 6.61938 18.6907 5.84336 19.7461 5.28463C20.817 4.7259 22.0121 4.44653 23.3313 4.44653C24.5574 4.44653 25.6749 4.70262 26.6837 5.21479C27.708 5.71144 28.5228 6.44865 29.1281 7.42643C29.7334 8.38869 30.0361 9.53719 30.0361 10.8719L21.0265 12.5947C21.5077 13.6035 22.4622 14.1079 23.89 14.1079ZM23.3546 7.5894C22.5941 7.5894 21.9733 7.82996 21.4922 8.31109C21.011 8.7767 20.7394 9.45183 20.6773 10.3365L25.799 9.33543C25.6438 8.80774 25.3489 8.38869 24.9144 8.07828C24.4798 7.75236 23.9599 7.5894 23.3546 7.5894Z" fill="white"/>
<path fill-rule="evenodd" clip-rule="evenodd" d="M11.291 1.72276C10.2046 1.22611 8.92417 0.977783 7.44975 0.977783H0V17.2741H4.60953V13.0138H7.44975C7.52437 13.0138 7.59849 13.0132 7.67212 13.0119L9.37702 17.2742H14.5505L12.324 11.708C12.9246 11.2911 13.4184 10.7874 13.8053 10.1968C14.3951 9.29667 14.69 8.23353 14.69 7.00742C14.69 5.78132 14.3951 4.71818 13.8053 3.818C13.2155 2.9023 12.3774 2.20389 11.291 1.72276ZM9.31219 8.77674C8.83106 9.18027 8.11712 9.38203 7.17038 9.38203H4.60953V4.60954H7.17038C8.11712 4.60954 8.83106 4.81906 9.31219 5.23811C9.79331 5.65716 10.0339 6.24693 10.0339 7.00742C10.0339 7.76792 9.79331 8.35769 9.31219 8.77674Z" fill="white"/>
</svg>
