<svg width="16" height="16" viewBox="0 0 16 16" fill="none" xmlns="http://www.w3.org/2000/svg">
<g id="Group">
<g id="Vector">
<path d="M8 0C3.58172 0 0 3.58172 0 8C0 12.4183 3.58172 16 8 16C12.4183 16 16 12.4183 16 8C15.9952 3.58369 12.4163 0.00478125 8 0ZM12 11C12.2709 11.2493 12.2493 11.7291 12 12C11.7507 12.2709 11.2709 12.2493 11 12C10.9864 11.9875 9.73716 10.6802 9.72466 10.6667L8 8.94266L5 12C4.73516 12.2558 4.25578 12.2648 4 12C3.7505 11.7417 3.7505 11.2583 4 11L7.05734 8L4 5C3.74422 4.73516 3.73516 4.25578 4 4C4.25834 3.7505 4.74166 3.7505 5 4L8 7.05734L11 4C11.2493 3.72909 11.7291 3.75066 12 4C12.2709 4.24934 12.2493 4.72909 12 5C11.9875 5.01356 10.6802 6.26284 10.6667 6.27534L8.94266 8L12 11Z" fill="black" fill-opacity="0.3"/>
<path d="M12 11C12.2709 11.2493 12.2493 11.7291 12 12C11.7507 12.2709 11.2709 12.2493 11 12C10.9864 11.9875 9.73716 10.6802 9.72466 10.6667L8 8.94266L5 12C4.73516 12.2558 4.25578 12.2648 4 12C3.7505 11.7417 3.7505 11.2583 4 11L7.05734 8L4 5C3.74422 4.73516 3.73516 4.25578 4 4C4.25834 3.7505 4.74166 3.7505 5 4L8 7.05734L11 4C11.2493 3.72909 11.7291 3.75066 12 4C12.2709 4.24934 12.2493 4.72909 12 5C11.9875 5.01356 10.6802 6.26284 10.6667 6.27534L8.94266 8L12 11Z" fill="white"/>
</g>
</g>
</svg>
